<mxfile type="github" version="13.7.5" host="app.diagrams.net" modified="2020-09-28T12:19:50.981Z" agent="5.0 (Windows NT 10.0; Win64; x64) AppleWebKit/537.36 (KHTML, like Gecko) Chrome/70.0.3538.102 Safari/537.36 Edge/18.18362" etag="hiGYq5KKn0DqUJquXENW">
  <diagram id="C5RBs43oDa-KdzZeNtuy" name="Page-1">
    <mxGraphModel grid="1" shadow="0" math="0" pageHeight="1169" pageWidth="827" pageScale="1" page="1" fold="1" arrows="1" connect="1" tooltips="1" guides="1" gridSize="10" dy="792" dx="1422">
      <root>
        <mxCell id="WIyWlLk6GJQsqaUBKTNV-0" />
        <mxCell id="WIyWlLk6GJQsqaUBKTNV-1" parent="WIyWlLk6GJQsqaUBKTNV-0" />
        <mxCell id="zkfFHV4jXpPFQw0GAbJ--0" style="swimlane;fontStyle=2;align=center;verticalAlign=top;childLayout=stackLayout;horizontal=1;startSize=26;horizontalStack=0;resizeParent=1;resizeLast=0;collapsible=1;marginBottom=0;rounded=0;shadow=0;strokeWidth=1;" value="User" parent="WIyWlLk6GJQsqaUBKTNV-1" vertex="1">
          <mxGeometry as="geometry" height="250" width="200" y="120" x="80">
            <mxRectangle as="alternateBounds" height="26" width="160" y="140" x="230" />
          </mxGeometry>
        </mxCell>
        <mxCell id="zkfFHV4jXpPFQw0GAbJ--1" style="text;align=left;verticalAlign=top;spacingLeft=4;spacingRight=4;overflow=hidden;rotatable=0;points=[[0,0.5],[1,0.5]];portConstraint=eastwest;" value="First Name" parent="zkfFHV4jXpPFQw0GAbJ--0" vertex="1">
          <mxGeometry as="geometry" height="26" width="200" y="26" />
        </mxCell>
        <mxCell id="zkfFHV4jXpPFQw0GAbJ--3" style="text;align=left;verticalAlign=top;spacingLeft=4;spacingRight=4;overflow=hidden;rotatable=0;points=[[0,0.5],[1,0.5]];portConstraint=eastwest;rounded=0;shadow=0;html=0;" value="Second Name" parent="zkfFHV4jXpPFQw0GAbJ--0" vertex="1">
          <mxGeometry as="geometry" height="26" width="200" y="52" />
        </mxCell>
        <mxCell id="8xTtEOM36e34AQUdQRy9-0" style="text;align=left;verticalAlign=top;spacingLeft=4;spacingRight=4;overflow=hidden;rotatable=0;points=[[0,0.5],[1,0.5]];portConstraint=eastwest;rounded=0;shadow=0;html=0;" value="Email Address" parent="zkfFHV4jXpPFQw0GAbJ--0" vertex="1">
          <mxGeometry as="geometry" height="26" width="200" y="78" />
        </mxCell>
        <mxCell id="8xTtEOM36e34AQUdQRy9-3" style="text;align=left;verticalAlign=top;spacingLeft=4;spacingRight=4;overflow=hidden;rotatable=0;points=[[0,0.5],[1,0.5]];portConstraint=eastwest;rounded=0;shadow=0;html=0;" value="Role (user, admin) - is_superuser" parent="zkfFHV4jXpPFQw0GAbJ--0" vertex="1">
          <mxGeometry as="geometry" height="26" width="200" y="104" />
        </mxCell>
        <mxCell id="8xTtEOM36e34AQUdQRy9-4" style="text;align=left;verticalAlign=top;spacingLeft=4;spacingRight=4;overflow=hidden;rotatable=0;points=[[0,0.5],[1,0.5]];portConstraint=eastwest;rounded=0;shadow=0;html=0;" value="Is Active" parent="zkfFHV4jXpPFQw0GAbJ--0" vertex="1">
          <mxGeometry as="geometry" height="26" width="200" y="130" />
        </mxCell>
        <mxCell id="8xTtEOM36e34AQUdQRy9-16" style="text;align=left;verticalAlign=top;spacingLeft=4;spacingRight=4;overflow=hidden;rotatable=0;points=[[0,0.5],[1,0.5]];portConstraint=eastwest;rounded=0;shadow=0;html=0;" value="add_info (additional information)" parent="zkfFHV4jXpPFQw0GAbJ--0" vertex="1">
          <mxGeometry as="geometry" height="26" width="200" y="156" />
        </mxCell>
        <mxCell id="zkfFHV4jXpPFQw0GAbJ--4" style="line;html=1;strokeWidth=1;align=left;verticalAlign=middle;spacingTop=-1;spacingLeft=3;spacingRight=3;rotatable=0;labelPosition=right;points=[];portConstraint=eastwest;" value="" parent="zkfFHV4jXpPFQw0GAbJ--0" vertex="1">
          <mxGeometry as="geometry" height="8" width="200" y="182" />
        </mxCell>
        <mxCell id="8xTtEOM36e34AQUdQRy9-2" style="text;align=left;verticalAlign=top;spacingLeft=4;spacingRight=4;overflow=hidden;rotatable=0;points=[[0,0.5],[1,0.5]];portConstraint=eastwest;rounded=0;shadow=0;html=0;" value="Phone number (optional)" parent="zkfFHV4jXpPFQw0GAbJ--0" vertex="1">
          <mxGeometry as="geometry" height="26" width="200" y="190" />
        </mxCell>
        <mxCell id="8xTtEOM36e34AQUdQRy9-6" style="text;align=left;verticalAlign=top;spacingLeft=4;spacingRight=4;overflow=hidden;rotatable=0;points=[[0,0.5],[1,0.5]];portConstraint=eastwest;rounded=0;shadow=0;html=0;" value="Ship address (optional)" parent="zkfFHV4jXpPFQw0GAbJ--0" vertex="1">
          <mxGeometry as="geometry" height="26" width="200" y="216" />
        </mxCell>
        <mxCell id="8xTtEOM36e34AQUdQRy9-7" style="swimlane;fontStyle=2;align=center;verticalAlign=top;childLayout=stackLayout;horizontal=1;startSize=26;horizontalStack=0;resizeParent=1;resizeLast=0;collapsible=1;marginBottom=0;rounded=0;shadow=0;strokeWidth=1;" value="Product" parent="WIyWlLk6GJQsqaUBKTNV-1" vertex="1">
          <mxGeometry as="geometry" height="160" width="200" y="120" x="380">
            <mxRectangle as="alternateBounds" height="26" width="160" y="140" x="230" />
          </mxGeometry>
        </mxCell>
        <mxCell id="8xTtEOM36e34AQUdQRy9-8" style="text;align=left;verticalAlign=top;spacingLeft=4;spacingRight=4;overflow=hidden;rotatable=0;points=[[0,0.5],[1,0.5]];portConstraint=eastwest;" value="Name" parent="8xTtEOM36e34AQUdQRy9-7" vertex="1">
          <mxGeometry as="geometry" height="26" width="200" y="26" />
        </mxCell>
        <mxCell id="8xTtEOM36e34AQUdQRy9-9" style="text;align=left;verticalAlign=top;spacingLeft=4;spacingRight=4;overflow=hidden;rotatable=0;points=[[0,0.5],[1,0.5]];portConstraint=eastwest;rounded=0;shadow=0;html=0;" value="Description" parent="8xTtEOM36e34AQUdQRy9-7" vertex="1">
          <mxGeometry as="geometry" height="26" width="200" y="52" />
        </mxCell>
        <mxCell id="8xTtEOM36e34AQUdQRy9-10" style="text;align=left;verticalAlign=top;spacingLeft=4;spacingRight=4;overflow=hidden;rotatable=0;points=[[0,0.5],[1,0.5]];portConstraint=eastwest;rounded=0;shadow=0;html=0;" value="Type" parent="8xTtEOM36e34AQUdQRy9-7" vertex="1">
          <mxGeometry as="geometry" height="26" width="200" y="78" />
        </mxCell>
        <mxCell id="8xTtEOM36e34AQUdQRy9-12" style="text;align=left;verticalAlign=top;spacingLeft=4;spacingRight=4;overflow=hidden;rotatable=0;points=[[0,0.5],[1,0.5]];portConstraint=eastwest;rounded=0;shadow=0;html=0;" value="Is Active" parent="8xTtEOM36e34AQUdQRy9-7" vertex="1">
          <mxGeometry as="geometry" height="26" width="200" y="104" />
        </mxCell>
        <mxCell id="8xTtEOM36e34AQUdQRy9-17" style="text;align=left;verticalAlign=top;spacingLeft=4;spacingRight=4;overflow=hidden;rotatable=0;points=[[0,0.5],[1,0.5]];portConstraint=eastwest;rounded=0;shadow=0;html=0;" value="add_info (additional information)" parent="8xTtEOM36e34AQUdQRy9-7" vertex="1">
          <mxGeometry as="geometry" height="26" width="200" y="130" />
        </mxCell>
        <mxCell id="8xTtEOM36e34AQUdQRy9-32" style="edgeStyle=elbowEdgeStyle;elbow=vertical;endArrow=classic;html=1;exitX=0;exitY=0.5;exitDx=0;exitDy=0;entryX=0.5;entryY=1;entryDx=0;entryDy=0;" value="" parent="WIyWlLk6GJQsqaUBKTNV-1" edge="1" target="zkfFHV4jXpPFQw0GAbJ--0" source="8xTtEOM36e34AQUdQRy9-19">
          <mxGeometry as="geometry" height="50" width="50" relative="1">
            <mxPoint as="sourcePoint" y="430" x="390" />
            <mxPoint as="targetPoint" y="380" x="440" />
            <Array as="points">
              <mxPoint y="459" x="230" />
            </Array>
          </mxGeometry>
        </mxCell>
        <mxCell id="8xTtEOM36e34AQUdQRy9-33" style="edgeStyle=elbowEdgeStyle;elbow=vertical;endArrow=classic;html=1;exitX=1;exitY=0.5;exitDx=0;exitDy=0;entryX=0.5;entryY=1;entryDx=0;entryDy=0;" value="" parent="WIyWlLk6GJQsqaUBKTNV-1" edge="1" target="8xTtEOM36e34AQUdQRy9-7" source="8xTtEOM36e34AQUdQRy9-20">
          <mxGeometry as="geometry" height="50" width="50" relative="1">
            <mxPoint as="sourcePoint" y="430" x="390" />
            <mxPoint as="targetPoint" y="380" x="440" />
            <Array as="points">
              <mxPoint y="480" x="480" />
            </Array>
          </mxGeometry>
        </mxCell>
        <mxCell id="8xTtEOM36e34AQUdQRy9-18" style="swimlane;fontStyle=2;align=center;verticalAlign=top;childLayout=stackLayout;horizontal=1;startSize=26;horizontalStack=0;resizeParent=1;resizeLast=0;collapsible=1;marginBottom=0;rounded=0;shadow=0;strokeWidth=1;" value="Order" parent="WIyWlLk6GJQsqaUBKTNV-1" vertex="1">
          <mxGeometry as="geometry" height="216" width="200" y="420" x="240">
            <mxRectangle as="alternateBounds" height="26" width="160" y="140" x="230" />
          </mxGeometry>
        </mxCell>
        <mxCell id="8xTtEOM36e34AQUdQRy9-19" style="text;align=left;verticalAlign=top;spacingLeft=4;spacingRight=4;overflow=hidden;rotatable=0;points=[[0,0.5],[1,0.5]];portConstraint=eastwest;" value="User_id" parent="8xTtEOM36e34AQUdQRy9-18" vertex="1">
          <mxGeometry as="geometry" height="26" width="200" y="26" />
        </mxCell>
        <mxCell id="8xTtEOM36e34AQUdQRy9-20" style="text;align=left;verticalAlign=top;spacingLeft=4;spacingRight=4;overflow=hidden;rotatable=0;points=[[0,0.5],[1,0.5]];portConstraint=eastwest;rounded=0;shadow=0;html=0;" value="Products_ids (array)" parent="8xTtEOM36e34AQUdQRy9-18" vertex="1">
          <mxGeometry as="geometry" height="26" width="200" y="52" />
        </mxCell>
        <mxCell id="8xTtEOM36e34AQUdQRy9-21" style="text;align=left;verticalAlign=top;spacingLeft=4;spacingRight=4;overflow=hidden;rotatable=0;points=[[0,0.5],[1,0.5]];portConstraint=eastwest;rounded=0;shadow=0;html=0;" value="Comments" parent="8xTtEOM36e34AQUdQRy9-18" vertex="1">
          <mxGeometry as="geometry" height="26" width="200" y="78" />
        </mxCell>
        <mxCell id="8xTtEOM36e34AQUdQRy9-22" style="text;align=left;verticalAlign=top;spacingLeft=4;spacingRight=4;overflow=hidden;rotatable=0;points=[[0,0.5],[1,0.5]];portConstraint=eastwest;rounded=0;shadow=0;html=0;" value="Date" parent="8xTtEOM36e34AQUdQRy9-18" vertex="1">
          <mxGeometry as="geometry" height="26" width="200" y="104" />
        </mxCell>
        <mxCell id="8xTtEOM36e34AQUdQRy9-23" style="text;align=left;verticalAlign=top;spacingLeft=4;spacingRight=4;overflow=hidden;rotatable=0;points=[[0,0.5],[1,0.5]];portConstraint=eastwest;rounded=0;shadow=0;html=0;" value="Purchase" parent="8xTtEOM36e34AQUdQRy9-18" vertex="1">
          <mxGeometry as="geometry" height="26" width="200" y="130" />
        </mxCell>
        <mxCell id="8xTtEOM36e34AQUdQRy9-28" style="text;align=left;verticalAlign=top;spacingLeft=4;spacingRight=4;overflow=hidden;rotatable=0;points=[[0,0.5],[1,0.5]];portConstraint=eastwest;rounded=0;shadow=0;html=0;" value="add_info (additional information)" parent="8xTtEOM36e34AQUdQRy9-18" vertex="1">
          <mxGeometry as="geometry" height="26" width="200" y="156" />
        </mxCell>
        <mxCell id="8xTtEOM36e34AQUdQRy9-29" style="line;html=1;strokeWidth=1;align=left;verticalAlign=middle;spacingTop=-1;spacingLeft=3;spacingRight=3;rotatable=0;labelPosition=right;points=[];portConstraint=eastwest;" value="" parent="8xTtEOM36e34AQUdQRy9-18" vertex="1">
          <mxGeometry as="geometry" height="8" width="200" y="182" />
        </mxCell>
        <mxCell id="8xTtEOM36e34AQUdQRy9-30" style="text;align=left;verticalAlign=top;spacingLeft=4;spacingRight=4;overflow=hidden;rotatable=0;points=[[0,0.5],[1,0.5]];portConstraint=eastwest;rounded=0;shadow=0;html=0;" value="Ship address (optional)" parent="8xTtEOM36e34AQUdQRy9-18" vertex="1">
          <mxGeometry as="geometry" height="26" width="200" y="190" />
        </mxCell>
      </root>
    </mxGraphModel>
  </diagram>
</mxfile>
